<svg xmlns="http://www.w3.org/2000/svg" viewBox="0 0 152.17 153.2"><title>11-2</title><g style="isolation:isolate"><g id="Background"><rect x="0.17" y="1" width="152" height="152" rx="11.33" ry="11.33" style="fill:#2f373f"/><path d="M20,96V32A13,13,0,0,1,33,19H159a13,13,0,0,1,13,13V96" transform="translate(-19.83 -19)" style="fill:#202528"/></g><g id="Camada_6" data-name="Camada 6"><path d="M68,48L20,108.91v48.94s-1.25,6.8,3,11.15a9.55,9.55,0,0,0,9,3H60l53-80,2-5,14-19,1-20H68Z" transform="translate(-19.83 -19)" style="fill:#313131;opacity:0.56;mix-blend-mode:multiply"/></g><g id="Camada_5" data-name="Camada 5"><polygon points="71.17 88 83.49 88 96.17 67 71.17 66.97 71.17 49 108.37 49 123.54 29.22 48.17 28.95 48.26 49 48.17 49 48.2 67 48.17 67 48.17 141 71.17 106.24 71.17 88" style="fill:#00d055"/></g></g></svg>